<svg width="68" height="38" viewBox="0 0 68 38" fill="none" xmlns="http://www.w3.org/2000/svg">
<path d="M9.40802 37.0662C6.45989 37.0662 4.15485 36.3941 2.49291 35.0498C0.83097 33.7056 0 31.8483 0 29.4778H5.76621C5.76621 30.4607 6.0986 31.2484 6.76337 31.841C7.42815 32.4337 8.3097 32.73 9.40802 32.73H9.75486C10.622 32.73 11.3301 32.5348 11.8793 32.1446C12.4284 31.7543 12.703 31.2412 12.703 30.6052C12.703 30.056 12.5151 29.6079 12.1394 29.261C11.7636 28.9141 11.1856 28.6395 10.4052 28.4371L7.58711 27.7433C5.27485 27.1651 3.57678 26.3629 2.49291 25.3367C1.40904 24.3104 0.867099 22.9301 0.867099 21.1956C0.867099 19.8947 1.22116 18.7384 1.92929 17.7266C2.63743 16.7148 3.64904 15.9271 4.96414 15.3634C6.27924 14.7996 7.81834 14.5178 9.58144 14.5178C12.3851 14.5178 14.5673 15.1755 16.128 16.4908C17.6888 17.8061 18.4692 19.6056 18.4692 21.8894H12.8331C12.7175 20.9354 12.3851 20.191 11.8359 19.6562C11.2867 19.1214 10.5353 18.854 9.58144 18.854H9.2346C8.42531 18.854 7.75331 19.0275 7.2186 19.3744C6.68389 19.7213 6.41653 20.2561 6.41653 20.9788C6.41653 21.528 6.65498 21.9761 7.13189 22.323C7.60879 22.6699 8.32415 22.959 9.27796 23.1903L12.1827 23.9274C14.2638 24.4478 15.7957 25.2283 16.7784 26.269C17.7611 27.3097 18.2524 28.6828 18.2524 30.3884C18.2524 31.6315 17.9128 32.7589 17.2336 33.7707C16.5544 34.7824 15.55 35.5846 14.2204 36.1773C12.8909 36.7699 11.2867 37.0662 9.40802 37.0662Z" fill="#0C1824"/>
<path d="M27.077 36.6326L20.4437 14.9514H26.1232L31.1524 33.7273H29.8517L33.9705 14.9514H39.9968L44.5491 34.1609L43.0316 33.7707L47.8874 14.9514H53.3501L47.1504 36.6326H40.8205L36.8319 20.8487H37.1354L33.4068 36.6326H27.077Z" fill="#0C1824"/>
<path fill-rule="evenodd" clip-rule="evenodd" d="M57.0119 19.6763V14.5434L62.7846 14.543V5.346H53.3766L53.3767 10.4798H48.2446V0H67.9176V19.6763H57.0119Z" fill="#0C1824"/>
</svg>
