<svg width="318" height="174" xmlns="http://www.w3.org/2000/svg"><g transform="translate(.385)" fill="#FFF" fill-rule="evenodd"><g transform="translate(0 68.002)" fill-rule="nonzero"><path d="M43.943 105.618c-13.77 0-24.537-3.149-32.3-9.445C3.882 89.877 0 81.177 0 70.073h26.933c0 4.604 1.552 8.294 4.657 11.07s7.223 4.164 12.353 4.164h1.62c4.05 0 7.358-.914 9.923-2.742 2.565-1.828 3.847-4.232 3.847-7.21 0-2.574-.877-4.672-2.632-6.297-1.755-1.625-4.455-2.912-8.1-3.86l-13.163-3.25c-10.8-2.707-18.732-6.465-23.794-11.272C6.58 45.87 4.05 39.404 4.05 31.28c0-6.093 1.654-11.51 4.961-16.249 3.308-4.739 8.033-8.429 14.176-11.07C29.329 1.32 36.517 0 44.753 0c13.095 0 23.288 3.08 30.578 9.242 7.29 6.16 10.935 14.59 10.935 25.287H59.941c-.54-4.469-2.093-7.955-4.658-10.46-2.565-2.505-6.075-3.758-10.53-3.758h-1.62c-3.78 0-6.919.813-9.416 2.437-2.498 1.625-3.747 4.13-3.747 7.516 0 2.572 1.114 4.671 3.342 6.296 2.227 1.625 5.568 2.979 10.024 4.062l13.567 3.453c9.72 2.437 16.875 6.093 21.465 10.968s6.886 11.307 6.886 19.296c0 5.822-1.587 11.103-4.76 15.842-3.172 4.74-7.863 8.497-14.073 11.273s-13.703 4.164-22.478 4.164z"/><path d="M126.471391 103.586544L95.4885224 2.03110871 122.016338 2.03110871 145.506617 89.9781158 139.431545 89.9781158 158.669274 2.03110871 186.817108 2.03110871 208.079861 92.0092245 200.992277 90.1812266 223.672547 2.03110871 249.18785 2.03110871 220.230006 103.586544 190.664654 103.586544 172.034433 29.6541871 173.45195 29.6541871 156.036742 103.586544z"/></g><path d="M266.292 92.165V68.122l26.966-.001V25.044h-43.947l.001 24.044h-23.97V0h91.888v92.165h-50.938z"/></g></svg>